HIERARCHY
ROOT Hips
{
	OFFSET 0.000000 0.000000 0.000000
	CHANNELS 6 Xposition Yposition Zposition Zrotation Yrotation Xrotation 
	JOINT LHipJoint
	{
		OFFSET 0.000000 0.000000 0.000000
		CHANNELS 3 Zrotation Yrotation Xrotation
		JOINT LeftUpLeg
		{
			OFFSET 1.363060 -1.794630 0.839290
			CHANNELS 3 Zrotation Yrotation Xrotation
			JOINT LeftLeg
			{
				OFFSET 2.448110 -6.726130 0.000000
				CHANNELS 3 Zrotation Yrotation Xrotation
				JOINT LeftFoot
				{
					OFFSET 2.562200 -7.039590 0.000000
					CHANNELS 3 Zrotation Yrotation Xrotation
					JOINT LeftToeBase
					{
						OFFSET 0.157640 -0.433110 2.322550
						CHANNELS 3 Zrotation Yrotation Xrotation
						End Site
						{
							OFFSET 0.000000 0.000000 0.000000
						}
					}
				}
			}
		}
	}
	JOINT RHipJoint
	{
		OFFSET 0.000000 0.000000 0.000000
		CHANNELS 3 Zrotation Yrotation Xrotation
		JOINT RightUpLeg
		{
			OFFSET -1.305520 -1.794630 0.839290
			CHANNELS 3 Zrotation Yrotation Xrotation
			JOINT RightLeg
			{
				OFFSET -2.542530 -6.985550 0.000000
				CHANNELS 3 Zrotation Yrotation Xrotation
				JOINT RightFoot
				{
					OFFSET -2.568260 -7.056230 0.000000
					CHANNELS 3 Zrotation Yrotation Xrotation
					JOINT RightToeBase
					{
						OFFSET -0.164730 -0.452590 2.363150
						CHANNELS 3 Zrotation Yrotation Xrotation
						End Site
						{
							OFFSET 0.000000 0.000000 0.000000
						}
					}
				}
			}
		}
	}
}
MOTION
Frames: 14
Frame Time: 0.008333
2.255846 16.893034 3.338688 -44.292325 -53.400675 37.409685 -14.492215 -3.895146 -3.402589 13.183448 -12.953254 -5.649828 0.250496 2.984199 37.058054 1.285404 6.075196 -16.424188 -0.985301 0.000000 -43.045600 3.659751 6.254650 2.836181 -6.086222 -16.679271 -86.974510 1.716783 1.696064 -0.521473 -4.230376 -17.563538 -8.607270 -1.267301 0.000000 -51.903600
2.257546 16.916672 3.324326 -43.720575 -52.063586 34.920992 -14.461107 -3.713754 -3.328882 13.063623 -14.097987 -2.906407 0.217934 3.057439 35.614532 1.272140 5.898271 -15.965502 -0.907900 -0.000000 -43.555001 3.489275 6.690494 1.711270 -5.264644 -18.558532 -79.896864 1.367857 2.136196 -8.791175 -3.354178 -16.352084 -4.309198 -2.378100 0.000000 -51.875099
2.252977 16.943870 3.316320 -43.205301 -50.732277 32.695362 -14.457161 -3.530251 -3.243981 12.938169 -15.434390 -0.251124 0.163740 3.134923 34.051543 1.271726 5.791786 -15.452890 -0.834200 0.000000 -44.129800 3.328911 6.862811 0.859505 -1.879911 -21.010274 -81.820314 2.211390 1.475504 -3.081539 -1.197483 -11.317068 -6.828024 -2.344199 0.000000 -53.925300
2.241496 16.974140 3.312908 -43.006522 -49.417553 30.999397 -14.447438 -3.309115 -3.016745 13.098876 -16.500792 1.820327 0.137679 3.162394 32.592748 1.246606 5.549650 -14.909795 -0.743600 0.000001 -44.947601 3.146755 6.954587 0.050986 1.799461 -23.397303 -82.949792 2.970264 0.968429 0.721142 -0.250634 -6.689605 -7.714451 -1.834800 -0.000000 -56.608199
2.222458 17.006931 3.311106 -42.818029 -48.232290 29.742480 -14.412397 -3.085203 -2.717728 13.367286 -17.302808 3.168785 0.131137 3.140337 31.323591 1.201732 5.213737 -14.394555 -0.652600 0.000000 -45.870300 3.110140 6.997455 -0.470979 3.587497 -25.252498 -82.490952 3.330640 0.601462 3.162363 0.048298 -4.432905 -7.914301 -1.516900 -0.000000 -58.994800
2.198137 17.041103 3.310102 -42.458963 -47.204786 28.765311 -14.339896 -2.870891 -2.379362 13.575513 -17.940085 3.871243 0.134932 3.077946 30.270865 1.151346 4.871876 -13.943872 -0.575800 -0.000000 -46.752300 3.286081 7.032274 -0.694638 2.934227 -26.358710 -80.034425 3.263696 0.371390 4.321612 0.191782 -4.909557 -7.584684 -1.741500 -0.000001 -60.969200
2.170428 17.075342 3.311023 -41.953908 -46.348283 28.058024 -14.246144 -2.671242 -2.014231 13.733439 -18.410209 3.985702 0.148502 2.984584 29.446121 1.097506 4.531570 -13.573435 -0.513401 -0.000000 -47.583400 3.669082 7.057662 -0.654420 0.040064 -26.425557 -75.592992 2.831085 0.269323 4.277066 0.335881 -7.970005 -6.689530 -2.655800 -0.000000 -62.268100
2.142235 17.107784 3.314025 -41.466976 -45.674547 27.665130 -14.159651 -2.484402 -1.635901 13.956246 -18.647599 3.617697 0.175087 2.873430 28.836422 1.034307 4.146009 -13.275434 -0.457700 -0.000000 -48.407000 4.184567 7.028683 -0.432685 -4.087735 -25.246945 -69.704709 2.165552 0.291712 3.072397 0.283275 -12.911919 -5.011697 -4.161900 -0.000000 -62.834300
2.116039 17.136669 3.320837 -41.247141 -45.184331 27.667188 -14.124266 -2.299160 -1.247408 14.437880 -18.549697 2.892228 0.221666 2.758219 28.403794 0.950552 3.630053 -13.029807 -0.396700 -0.000000 -49.329500 4.717223 6.876006 -0.144084 -7.979758 -22.958358 -63.261605 1.470329 0.435057 0.725661 -0.348694 -18.576535 -2.141962 -5.965100 -0.000000 -62.869300
2.094767 17.160129 3.333047 -41.461765 -44.819946 27.967613 -14.166950 -2.095432 -0.845297 15.247385 -18.160591 2.115839 0.287095 2.654985 28.055306 0.848357 2.978900 -12.812352 -0.326701 0.000000 -50.367700 5.153177 6.579156 -0.011846 -10.016625 -20.474342 -57.078910 1.014536 0.670689 -2.871701 -1.909003 -23.076706 2.613860 -7.486899 0.000000 -63.324299
2.077865 17.177101 3.348778 -41.988191 -44.489526 28.246196 -14.261036 -1.867805 -0.451605 16.179768 -17.729508 1.696424 0.353602 2.574089 27.663130 0.748498 2.316120 -12.616384 -0.258700 -0.000000 -51.385299 5.454821 6.214443 -0.197111 -9.586164 -19.001099 -52.289170 1.003104 0.826780 -5.863781 -3.840794 -24.601607 8.350261 -8.066300 0.000000 -64.489200
2.060706 17.187691 3.362314 -42.524336 -44.099250 28.237017 -14.332400 -1.664721 -0.155676 16.932992 -17.530526 1.887288 0.398568 2.514838 27.129975 0.671763 1.779089 -12.450938 -0.206400 0.000000 -52.212400 5.569739 5.929868 -0.524486 -7.733911 -18.855023 -52.734973 1.518349 0.357869 0.520302 -3.568210 -22.978795 8.976061 -7.569800 -0.000000 -65.481300
2.040828 17.192705 3.370722 -43.028158 -43.796984 27.901291 -14.392549 -1.442044 0.082201 17.463445 -17.452938 2.622421 0.414700 2.484621 26.461134 0.613299 1.352771 -12.311236 -0.166701 0.000000 -52.860900 5.709286 5.613031 -1.097539 -5.530734 -19.215532 -52.882376 2.026534 -0.186183 6.496585 -3.113288 -20.402001 9.971959 -6.797800 -0.000000 -65.379200
2.020355 17.193510 3.375766 -43.548899 -43.675320 27.516639 -14.463732 -1.237688 0.236315 17.875201 -17.296305 3.604606 0.416172 2.473942 25.723992 0.562712 0.976461 -12.187878 -0.133000 -0.000000 -53.392500 5.912052 5.250771 -1.668065 -3.783483 -19.267811 -52.181289 2.348466 -0.648701 11.143294 -2.700888 -18.138320 11.324717 -6.209199 0.000000 -64.489300
